<mxfile host="app.diagrams.net" modified="2022-11-28T10:01:37.366Z" agent="5.0 (Windows NT 10.0; Win64; x64) AppleWebKit/537.36 (KHTML, like Gecko) Chrome/107.0.0.0 Safari/537.36" version="20.6.0" etag="N0pd5vXwvaPHybhhs-1t" type="github">
  <diagram id="-UNeOo8vth_LtwBms9J3" name="Page-1">
    <mxGraphModel dx="1038" dy="579" grid="1" gridSize="10" guides="1" tooltips="1" connect="1" arrows="1" fold="1" page="1" pageScale="1" pageWidth="850" pageHeight="1100" math="0" shadow="0">
      <root>
        <mxCell id="0" />
        <mxCell id="1" parent="0" />
        <mxCell id="zoTnUmoQX1SKPd96RVCC-13" value="" style="edgeStyle=orthogonalEdgeStyle;rounded=0;orthogonalLoop=1;jettySize=auto;html=1;" edge="1" parent="1" source="zoTnUmoQX1SKPd96RVCC-1" target="zoTnUmoQX1SKPd96RVCC-4">
          <mxGeometry relative="1" as="geometry" />
        </mxCell>
        <mxCell id="zoTnUmoQX1SKPd96RVCC-1" value="start" style="ellipse;whiteSpace=wrap;html=1;" vertex="1" parent="1">
          <mxGeometry x="30" y="30" width="120" height="80" as="geometry" />
        </mxCell>
        <mxCell id="zoTnUmoQX1SKPd96RVCC-8" value="" style="edgeStyle=orthogonalEdgeStyle;rounded=0;orthogonalLoop=1;jettySize=auto;html=1;" edge="1" parent="1" source="zoTnUmoQX1SKPd96RVCC-4" target="zoTnUmoQX1SKPd96RVCC-7">
          <mxGeometry relative="1" as="geometry" />
        </mxCell>
        <mxCell id="zoTnUmoQX1SKPd96RVCC-4" value="เตรียมมาม่า" style="rounded=0;whiteSpace=wrap;html=1;" vertex="1" parent="1">
          <mxGeometry x="180" y="40" width="120" height="60" as="geometry" />
        </mxCell>
        <mxCell id="zoTnUmoQX1SKPd96RVCC-10" value="" style="edgeStyle=orthogonalEdgeStyle;rounded=0;orthogonalLoop=1;jettySize=auto;html=1;" edge="1" parent="1" source="zoTnUmoQX1SKPd96RVCC-7" target="zoTnUmoQX1SKPd96RVCC-9">
          <mxGeometry relative="1" as="geometry" />
        </mxCell>
        <mxCell id="zoTnUmoQX1SKPd96RVCC-7" value="ใส่น้ำลงในหม้อ" style="rounded=0;whiteSpace=wrap;html=1;" vertex="1" parent="1">
          <mxGeometry x="330" y="40" width="120" height="60" as="geometry" />
        </mxCell>
        <mxCell id="zoTnUmoQX1SKPd96RVCC-12" value="" style="edgeStyle=orthogonalEdgeStyle;rounded=0;orthogonalLoop=1;jettySize=auto;html=1;" edge="1" parent="1" source="zoTnUmoQX1SKPd96RVCC-9" target="zoTnUmoQX1SKPd96RVCC-11">
          <mxGeometry relative="1" as="geometry" />
        </mxCell>
        <mxCell id="zoTnUmoQX1SKPd96RVCC-9" value="ต้มน้ำ" style="rounded=0;whiteSpace=wrap;html=1;" vertex="1" parent="1">
          <mxGeometry x="480" y="40" width="120" height="60" as="geometry" />
        </mxCell>
        <mxCell id="zoTnUmoQX1SKPd96RVCC-15" value="" style="edgeStyle=orthogonalEdgeStyle;rounded=0;orthogonalLoop=1;jettySize=auto;html=1;" edge="1" parent="1" source="zoTnUmoQX1SKPd96RVCC-11" target="zoTnUmoQX1SKPd96RVCC-14">
          <mxGeometry relative="1" as="geometry" />
        </mxCell>
        <mxCell id="zoTnUmoQX1SKPd96RVCC-11" value="น้ำเดือด" style="rounded=0;whiteSpace=wrap;html=1;" vertex="1" parent="1">
          <mxGeometry x="620" y="40" width="120" height="60" as="geometry" />
        </mxCell>
        <mxCell id="zoTnUmoQX1SKPd96RVCC-17" value="" style="edgeStyle=orthogonalEdgeStyle;rounded=0;orthogonalLoop=1;jettySize=auto;html=1;" edge="1" parent="1" source="zoTnUmoQX1SKPd96RVCC-14" target="zoTnUmoQX1SKPd96RVCC-16">
          <mxGeometry relative="1" as="geometry" />
        </mxCell>
        <mxCell id="zoTnUmoQX1SKPd96RVCC-14" value="ใส่มาม่า" style="rounded=0;whiteSpace=wrap;html=1;" vertex="1" parent="1">
          <mxGeometry x="620" y="130" width="120" height="60" as="geometry" />
        </mxCell>
        <mxCell id="zoTnUmoQX1SKPd96RVCC-19" value="" style="edgeStyle=orthogonalEdgeStyle;rounded=0;orthogonalLoop=1;jettySize=auto;html=1;" edge="1" parent="1" source="zoTnUmoQX1SKPd96RVCC-16" target="zoTnUmoQX1SKPd96RVCC-18">
          <mxGeometry relative="1" as="geometry" />
        </mxCell>
        <mxCell id="zoTnUmoQX1SKPd96RVCC-16" value="มาม่าสุกแล้วเทน้ำออก&lt;br&gt;" style="rounded=0;whiteSpace=wrap;html=1;" vertex="1" parent="1">
          <mxGeometry x="480" y="130" width="120" height="60" as="geometry" />
        </mxCell>
        <mxCell id="zoTnUmoQX1SKPd96RVCC-21" value="" style="edgeStyle=orthogonalEdgeStyle;rounded=0;orthogonalLoop=1;jettySize=auto;html=1;" edge="1" parent="1" source="zoTnUmoQX1SKPd96RVCC-18" target="zoTnUmoQX1SKPd96RVCC-20">
          <mxGeometry relative="1" as="geometry" />
        </mxCell>
        <mxCell id="zoTnUmoQX1SKPd96RVCC-18" value="เทมาม่าใส่จาน" style="whiteSpace=wrap;html=1;rounded=0;" vertex="1" parent="1">
          <mxGeometry x="330" y="130" width="120" height="60" as="geometry" />
        </mxCell>
        <mxCell id="zoTnUmoQX1SKPd96RVCC-23" value="" style="edgeStyle=orthogonalEdgeStyle;rounded=0;orthogonalLoop=1;jettySize=auto;html=1;" edge="1" parent="1" source="zoTnUmoQX1SKPd96RVCC-20" target="zoTnUmoQX1SKPd96RVCC-22">
          <mxGeometry relative="1" as="geometry" />
        </mxCell>
        <mxCell id="zoTnUmoQX1SKPd96RVCC-20" value="ใส่ผง" style="whiteSpace=wrap;html=1;rounded=0;" vertex="1" parent="1">
          <mxGeometry x="180" y="130" width="120" height="60" as="geometry" />
        </mxCell>
        <mxCell id="zoTnUmoQX1SKPd96RVCC-25" value="" style="edgeStyle=orthogonalEdgeStyle;rounded=0;orthogonalLoop=1;jettySize=auto;html=1;" edge="1" parent="1" source="zoTnUmoQX1SKPd96RVCC-22" target="zoTnUmoQX1SKPd96RVCC-24">
          <mxGeometry relative="1" as="geometry" />
        </mxCell>
        <mxCell id="zoTnUmoQX1SKPd96RVCC-22" value="คลุก" style="whiteSpace=wrap;html=1;rounded=0;" vertex="1" parent="1">
          <mxGeometry x="30" y="130" width="120" height="60" as="geometry" />
        </mxCell>
        <mxCell id="zoTnUmoQX1SKPd96RVCC-28" value="" style="edgeStyle=orthogonalEdgeStyle;rounded=0;orthogonalLoop=1;jettySize=auto;html=1;" edge="1" parent="1" source="zoTnUmoQX1SKPd96RVCC-24" target="zoTnUmoQX1SKPd96RVCC-27">
          <mxGeometry relative="1" as="geometry" />
        </mxCell>
        <mxCell id="zoTnUmoQX1SKPd96RVCC-24" value="กิน" style="whiteSpace=wrap;html=1;rounded=0;" vertex="1" parent="1">
          <mxGeometry x="30" y="220" width="120" height="60" as="geometry" />
        </mxCell>
        <mxCell id="zoTnUmoQX1SKPd96RVCC-27" value="End" style="ellipse;whiteSpace=wrap;html=1;rounded=0;" vertex="1" parent="1">
          <mxGeometry x="180" y="220" width="120" height="60" as="geometry" />
        </mxCell>
        <mxCell id="zoTnUmoQX1SKPd96RVCC-45" value="" style="edgeStyle=orthogonalEdgeStyle;rounded=0;orthogonalLoop=1;jettySize=auto;html=1;" edge="1" parent="1" source="zoTnUmoQX1SKPd96RVCC-29" target="zoTnUmoQX1SKPd96RVCC-44">
          <mxGeometry relative="1" as="geometry" />
        </mxCell>
        <mxCell id="zoTnUmoQX1SKPd96RVCC-29" value="start" style="ellipse;whiteSpace=wrap;html=1;" vertex="1" parent="1">
          <mxGeometry x="20" y="340" width="120" height="80" as="geometry" />
        </mxCell>
        <mxCell id="zoTnUmoQX1SKPd96RVCC-47" value="" style="edgeStyle=orthogonalEdgeStyle;rounded=0;orthogonalLoop=1;jettySize=auto;html=1;" edge="1" parent="1" source="zoTnUmoQX1SKPd96RVCC-44" target="zoTnUmoQX1SKPd96RVCC-46">
          <mxGeometry relative="1" as="geometry" />
        </mxCell>
        <mxCell id="zoTnUmoQX1SKPd96RVCC-44" value="ทำงาน" style="whiteSpace=wrap;html=1;" vertex="1" parent="1">
          <mxGeometry x="240" y="350" width="120" height="60" as="geometry" />
        </mxCell>
        <mxCell id="zoTnUmoQX1SKPd96RVCC-49" value="" style="edgeStyle=orthogonalEdgeStyle;rounded=0;orthogonalLoop=1;jettySize=auto;html=1;" edge="1" parent="1" source="zoTnUmoQX1SKPd96RVCC-46" target="zoTnUmoQX1SKPd96RVCC-48">
          <mxGeometry relative="1" as="geometry" />
        </mxCell>
        <mxCell id="zoTnUmoQX1SKPd96RVCC-46" value="นั่งรถกลับบ้าน" style="whiteSpace=wrap;html=1;" vertex="1" parent="1">
          <mxGeometry x="440" y="350" width="120" height="60" as="geometry" />
        </mxCell>
        <mxCell id="zoTnUmoQX1SKPd96RVCC-51" value="" style="edgeStyle=orthogonalEdgeStyle;rounded=0;orthogonalLoop=1;jettySize=auto;html=1;" edge="1" parent="1" source="zoTnUmoQX1SKPd96RVCC-48" target="zoTnUmoQX1SKPd96RVCC-50">
          <mxGeometry relative="1" as="geometry" />
        </mxCell>
        <mxCell id="zoTnUmoQX1SKPd96RVCC-48" value="กินข้าว" style="whiteSpace=wrap;html=1;" vertex="1" parent="1">
          <mxGeometry x="640" y="350" width="120" height="60" as="geometry" />
        </mxCell>
        <mxCell id="zoTnUmoQX1SKPd96RVCC-55" value="" style="edgeStyle=orthogonalEdgeStyle;rounded=0;orthogonalLoop=1;jettySize=auto;html=1;" edge="1" parent="1" source="zoTnUmoQX1SKPd96RVCC-50" target="zoTnUmoQX1SKPd96RVCC-54">
          <mxGeometry relative="1" as="geometry" />
        </mxCell>
        <mxCell id="zoTnUmoQX1SKPd96RVCC-50" value="อาบน้ำ" style="whiteSpace=wrap;html=1;" vertex="1" parent="1">
          <mxGeometry x="640" y="450" width="120" height="60" as="geometry" />
        </mxCell>
        <mxCell id="zoTnUmoQX1SKPd96RVCC-57" value="" style="edgeStyle=orthogonalEdgeStyle;rounded=0;orthogonalLoop=1;jettySize=auto;html=1;" edge="1" parent="1" source="zoTnUmoQX1SKPd96RVCC-54" target="zoTnUmoQX1SKPd96RVCC-56">
          <mxGeometry relative="1" as="geometry" />
        </mxCell>
        <mxCell id="zoTnUmoQX1SKPd96RVCC-54" value="ความเหนื่อย = x" style="shape=parallelogram;perimeter=parallelogramPerimeter;whiteSpace=wrap;html=1;fixedSize=1;" vertex="1" parent="1">
          <mxGeometry x="470" y="450" width="120" height="60" as="geometry" />
        </mxCell>
        <mxCell id="zoTnUmoQX1SKPd96RVCC-59" value="" style="edgeStyle=orthogonalEdgeStyle;rounded=0;orthogonalLoop=1;jettySize=auto;html=1;" edge="1" parent="1" source="zoTnUmoQX1SKPd96RVCC-56" target="zoTnUmoQX1SKPd96RVCC-58">
          <mxGeometry relative="1" as="geometry" />
        </mxCell>
        <mxCell id="zoTnUmoQX1SKPd96RVCC-63" value="false" style="edgeStyle=orthogonalEdgeStyle;rounded=0;orthogonalLoop=1;jettySize=auto;html=1;" edge="1" parent="1" source="zoTnUmoQX1SKPd96RVCC-56" target="zoTnUmoQX1SKPd96RVCC-62">
          <mxGeometry relative="1" as="geometry" />
        </mxCell>
        <mxCell id="zoTnUmoQX1SKPd96RVCC-56" value="x &amp;gt; 1" style="rhombus;whiteSpace=wrap;html=1;" vertex="1" parent="1">
          <mxGeometry x="370" y="440" width="80" height="80" as="geometry" />
        </mxCell>
        <mxCell id="zoTnUmoQX1SKPd96RVCC-61" value="" style="edgeStyle=orthogonalEdgeStyle;rounded=0;orthogonalLoop=1;jettySize=auto;html=1;" edge="1" parent="1" source="zoTnUmoQX1SKPd96RVCC-58" target="zoTnUmoQX1SKPd96RVCC-60">
          <mxGeometry relative="1" as="geometry" />
        </mxCell>
        <mxCell id="zoTnUmoQX1SKPd96RVCC-66" value="true" style="edgeStyle=orthogonalEdgeStyle;rounded=0;orthogonalLoop=1;jettySize=auto;html=1;" edge="1" parent="1" source="zoTnUmoQX1SKPd96RVCC-58" target="zoTnUmoQX1SKPd96RVCC-56">
          <mxGeometry relative="1" as="geometry" />
        </mxCell>
        <mxCell id="zoTnUmoQX1SKPd96RVCC-58" value="นอน" style="whiteSpace=wrap;html=1;" vertex="1" parent="1">
          <mxGeometry x="170" y="450" width="120" height="60" as="geometry" />
        </mxCell>
        <mxCell id="zoTnUmoQX1SKPd96RVCC-60" value="end" style="ellipse;whiteSpace=wrap;html=1;" vertex="1" parent="1">
          <mxGeometry x="20" y="440" width="120" height="80" as="geometry" />
        </mxCell>
        <mxCell id="zoTnUmoQX1SKPd96RVCC-69" value="" style="edgeStyle=orthogonalEdgeStyle;rounded=0;orthogonalLoop=1;jettySize=auto;html=1;" edge="1" parent="1" source="zoTnUmoQX1SKPd96RVCC-62" target="zoTnUmoQX1SKPd96RVCC-68">
          <mxGeometry relative="1" as="geometry" />
        </mxCell>
        <mxCell id="zoTnUmoQX1SKPd96RVCC-62" value="เล่นเกม" style="whiteSpace=wrap;html=1;" vertex="1" parent="1">
          <mxGeometry x="350" y="570" width="120" height="60" as="geometry" />
        </mxCell>
        <mxCell id="zoTnUmoQX1SKPd96RVCC-74" style="edgeStyle=orthogonalEdgeStyle;rounded=0;orthogonalLoop=1;jettySize=auto;html=1;exitX=1;exitY=0.5;exitDx=0;exitDy=0;entryX=0;entryY=0.5;entryDx=0;entryDy=0;" edge="1" parent="1" source="zoTnUmoQX1SKPd96RVCC-67" target="zoTnUmoQX1SKPd96RVCC-73">
          <mxGeometry relative="1" as="geometry" />
        </mxCell>
        <mxCell id="zoTnUmoQX1SKPd96RVCC-67" value="start" style="ellipse;whiteSpace=wrap;html=1;" vertex="1" parent="1">
          <mxGeometry x="40" y="780" width="120" height="80" as="geometry" />
        </mxCell>
        <mxCell id="zoTnUmoQX1SKPd96RVCC-71" style="edgeStyle=orthogonalEdgeStyle;rounded=0;orthogonalLoop=1;jettySize=auto;html=1;exitX=0;exitY=0.5;exitDx=0;exitDy=0;entryX=0.5;entryY=1;entryDx=0;entryDy=0;" edge="1" parent="1" source="zoTnUmoQX1SKPd96RVCC-68" target="zoTnUmoQX1SKPd96RVCC-70">
          <mxGeometry relative="1" as="geometry" />
        </mxCell>
        <mxCell id="zoTnUmoQX1SKPd96RVCC-68" value="นอนเล่นมือถือ&lt;br&gt;" style="rounded=0;whiteSpace=wrap;html=1;" vertex="1" parent="1">
          <mxGeometry x="350" y="660" width="120" height="60" as="geometry" />
        </mxCell>
        <mxCell id="zoTnUmoQX1SKPd96RVCC-72" style="edgeStyle=orthogonalEdgeStyle;rounded=0;orthogonalLoop=1;jettySize=auto;html=1;exitX=0.5;exitY=0;exitDx=0;exitDy=0;" edge="1" parent="1" source="zoTnUmoQX1SKPd96RVCC-70" target="zoTnUmoQX1SKPd96RVCC-58">
          <mxGeometry relative="1" as="geometry" />
        </mxCell>
        <mxCell id="zoTnUmoQX1SKPd96RVCC-70" value="ปิดไฟ" style="rounded=0;whiteSpace=wrap;html=1;" vertex="1" parent="1">
          <mxGeometry x="170" y="590" width="120" height="60" as="geometry" />
        </mxCell>
        <mxCell id="zoTnUmoQX1SKPd96RVCC-76" style="edgeStyle=orthogonalEdgeStyle;rounded=0;orthogonalLoop=1;jettySize=auto;html=1;exitX=1;exitY=0.5;exitDx=0;exitDy=0;entryX=0;entryY=0.5;entryDx=0;entryDy=0;" edge="1" parent="1" source="zoTnUmoQX1SKPd96RVCC-73" target="zoTnUmoQX1SKPd96RVCC-75">
          <mxGeometry relative="1" as="geometry" />
        </mxCell>
        <mxCell id="zoTnUmoQX1SKPd96RVCC-73" value="วิ่ง" style="rounded=0;whiteSpace=wrap;html=1;" vertex="1" parent="1">
          <mxGeometry x="200" y="790" width="120" height="60" as="geometry" />
        </mxCell>
        <mxCell id="zoTnUmoQX1SKPd96RVCC-78" style="edgeStyle=orthogonalEdgeStyle;rounded=0;orthogonalLoop=1;jettySize=auto;html=1;exitX=1;exitY=0.5;exitDx=0;exitDy=0;entryX=0;entryY=0.5;entryDx=0;entryDy=0;" edge="1" parent="1" source="zoTnUmoQX1SKPd96RVCC-75" target="zoTnUmoQX1SKPd96RVCC-77">
          <mxGeometry relative="1" as="geometry" />
        </mxCell>
        <mxCell id="zoTnUmoQX1SKPd96RVCC-75" value="กิโล= x" style="shape=parallelogram;perimeter=parallelogramPerimeter;whiteSpace=wrap;html=1;fixedSize=1;" vertex="1" parent="1">
          <mxGeometry x="370" y="790" width="120" height="60" as="geometry" />
        </mxCell>
        <mxCell id="zoTnUmoQX1SKPd96RVCC-80" style="edgeStyle=orthogonalEdgeStyle;rounded=0;orthogonalLoop=1;jettySize=auto;html=1;entryX=0.5;entryY=0;entryDx=0;entryDy=0;" edge="1" parent="1" source="zoTnUmoQX1SKPd96RVCC-77" target="zoTnUmoQX1SKPd96RVCC-79">
          <mxGeometry relative="1" as="geometry" />
        </mxCell>
        <mxCell id="zoTnUmoQX1SKPd96RVCC-77" value="x + 1" style="shape=parallelogram;perimeter=parallelogramPerimeter;whiteSpace=wrap;html=1;fixedSize=1;" vertex="1" parent="1">
          <mxGeometry x="530" y="790" width="120" height="60" as="geometry" />
        </mxCell>
        <mxCell id="zoTnUmoQX1SKPd96RVCC-82" style="edgeStyle=orthogonalEdgeStyle;rounded=0;orthogonalLoop=1;jettySize=auto;html=1;exitX=1;exitY=0.5;exitDx=0;exitDy=0;" edge="1" parent="1" source="zoTnUmoQX1SKPd96RVCC-79">
          <mxGeometry relative="1" as="geometry">
            <mxPoint x="750" y="830" as="targetPoint" />
            <Array as="points">
              <mxPoint x="750" y="940" />
            </Array>
          </mxGeometry>
        </mxCell>
        <mxCell id="zoTnUmoQX1SKPd96RVCC-84" value="false" style="edgeLabel;html=1;align=center;verticalAlign=middle;resizable=0;points=[];" vertex="1" connectable="0" parent="zoTnUmoQX1SKPd96RVCC-82">
          <mxGeometry x="-0.3861" relative="1" as="geometry">
            <mxPoint as="offset" />
          </mxGeometry>
        </mxCell>
        <mxCell id="zoTnUmoQX1SKPd96RVCC-86" value="" style="edgeStyle=orthogonalEdgeStyle;rounded=0;orthogonalLoop=1;jettySize=auto;html=1;" edge="1" parent="1" source="zoTnUmoQX1SKPd96RVCC-79" target="zoTnUmoQX1SKPd96RVCC-85">
          <mxGeometry relative="1" as="geometry" />
        </mxCell>
        <mxCell id="zoTnUmoQX1SKPd96RVCC-79" value="x &amp;gt; 5" style="rhombus;whiteSpace=wrap;html=1;" vertex="1" parent="1">
          <mxGeometry x="550" y="900" width="80" height="80" as="geometry" />
        </mxCell>
        <mxCell id="zoTnUmoQX1SKPd96RVCC-83" value="" style="endArrow=classic;html=1;rounded=0;entryX=1;entryY=0.5;entryDx=0;entryDy=0;" edge="1" parent="1" target="zoTnUmoQX1SKPd96RVCC-77">
          <mxGeometry width="50" height="50" relative="1" as="geometry">
            <mxPoint x="750" y="820" as="sourcePoint" />
            <mxPoint x="720" y="750" as="targetPoint" />
          </mxGeometry>
        </mxCell>
        <mxCell id="zoTnUmoQX1SKPd96RVCC-85" value="หยุดวิ่ง" style="rounded=0;whiteSpace=wrap;html=1;" vertex="1" parent="1">
          <mxGeometry x="390" y="910" width="120" height="60" as="geometry" />
        </mxCell>
        <mxCell id="zoTnUmoQX1SKPd96RVCC-97" value="" style="edgeStyle=orthogonalEdgeStyle;rounded=0;orthogonalLoop=1;jettySize=auto;html=1;" edge="1" parent="1" source="zoTnUmoQX1SKPd96RVCC-94" target="zoTnUmoQX1SKPd96RVCC-96">
          <mxGeometry relative="1" as="geometry" />
        </mxCell>
        <mxCell id="zoTnUmoQX1SKPd96RVCC-94" value="ปั่น จักรยาน" style="rounded=0;whiteSpace=wrap;html=1;" vertex="1" parent="1">
          <mxGeometry x="250" y="910" width="120" height="60" as="geometry" />
        </mxCell>
        <mxCell id="zoTnUmoQX1SKPd96RVCC-99" value="" style="edgeStyle=orthogonalEdgeStyle;rounded=0;orthogonalLoop=1;jettySize=auto;html=1;" edge="1" parent="1" source="zoTnUmoQX1SKPd96RVCC-96" target="zoTnUmoQX1SKPd96RVCC-98">
          <mxGeometry relative="1" as="geometry" />
        </mxCell>
        <mxCell id="zoTnUmoQX1SKPd96RVCC-96" value="x +1&lt;br&gt;" style="shape=parallelogram;perimeter=parallelogramPerimeter;whiteSpace=wrap;html=1;fixedSize=1;" vertex="1" parent="1">
          <mxGeometry x="100" y="910" width="120" height="60" as="geometry" />
        </mxCell>
        <mxCell id="zoTnUmoQX1SKPd96RVCC-102" value="true" style="edgeStyle=orthogonalEdgeStyle;rounded=0;orthogonalLoop=1;jettySize=auto;html=1;" edge="1" parent="1" source="zoTnUmoQX1SKPd96RVCC-98" target="zoTnUmoQX1SKPd96RVCC-100">
          <mxGeometry relative="1" as="geometry" />
        </mxCell>
        <mxCell id="zoTnUmoQX1SKPd96RVCC-112" value="false" style="edgeStyle=orthogonalEdgeStyle;rounded=0;orthogonalLoop=1;jettySize=auto;html=1;exitX=0;exitY=0.5;exitDx=0;exitDy=0;entryX=0.167;entryY=1;entryDx=0;entryDy=0;entryPerimeter=0;" edge="1" parent="1" source="zoTnUmoQX1SKPd96RVCC-98" target="zoTnUmoQX1SKPd96RVCC-96">
          <mxGeometry relative="1" as="geometry" />
        </mxCell>
        <mxCell id="zoTnUmoQX1SKPd96RVCC-98" value="x &amp;gt; 10" style="rhombus;whiteSpace=wrap;html=1;" vertex="1" parent="1">
          <mxGeometry x="200" y="1000" width="80" height="80" as="geometry" />
        </mxCell>
        <mxCell id="zoTnUmoQX1SKPd96RVCC-110" value="" style="edgeStyle=orthogonalEdgeStyle;rounded=0;orthogonalLoop=1;jettySize=auto;html=1;" edge="1" parent="1" source="zoTnUmoQX1SKPd96RVCC-100" target="zoTnUmoQX1SKPd96RVCC-108">
          <mxGeometry relative="1" as="geometry" />
        </mxCell>
        <mxCell id="zoTnUmoQX1SKPd96RVCC-100" value="หยุดออกกำลังกาย" style="rounded=0;whiteSpace=wrap;html=1;" vertex="1" parent="1">
          <mxGeometry x="370" y="1010" width="120" height="60" as="geometry" />
        </mxCell>
        <mxCell id="zoTnUmoQX1SKPd96RVCC-101" value="end" style="ellipse;whiteSpace=wrap;html=1;" vertex="1" parent="1">
          <mxGeometry x="680" y="1000" width="120" height="80" as="geometry" />
        </mxCell>
        <mxCell id="zoTnUmoQX1SKPd96RVCC-111" value="" style="edgeStyle=orthogonalEdgeStyle;rounded=0;orthogonalLoop=1;jettySize=auto;html=1;" edge="1" parent="1" source="zoTnUmoQX1SKPd96RVCC-108" target="zoTnUmoQX1SKPd96RVCC-101">
          <mxGeometry relative="1" as="geometry" />
        </mxCell>
        <mxCell id="zoTnUmoQX1SKPd96RVCC-108" value="กลับบ้าน" style="rounded=0;whiteSpace=wrap;html=1;" vertex="1" parent="1">
          <mxGeometry x="530" y="1010" width="120" height="60" as="geometry" />
        </mxCell>
      </root>
    </mxGraphModel>
  </diagram>
</mxfile>
